0
SECTION
2
HEADER
9
$ACADVER
1
AC1009
9
$INSUNITS
70
4
9
$MEASUREMENT
70
1
9
$EXTMIN
10
0.0000
20
0.0000
30
0.0000
9
$EXTMAX
10
36.3000
20
470.0000
30
0.0000
0
ENDSEC
0
SECTION
2
TABLES
0
TABLE
2
LTYPE
70
1
0
LTYPE
2
CONTINUOUS
70
0
3
Solid line
72
65
73
0
40
0.0000
0
ENDTAB
0
TABLE
2
LAYER
70
8
0
LAYER
2
OUTLINE
70
0
62
7
6
CONTINUOUS
0
LAYER
2
ENCODER
70
0
62
1
6
CONTINUOUS
0
LAYER
2
LED_RING
70
0
62
3
6
CONTINUOUS
0
LAYER
2
BUTTON
70
0
62
5
6
CONTINUOUS
0
LAYER
2
LED
70
0
62
2
6
CONTINUOUS
0
LAYER
2
DISPLAY
70
0
62
6
6
CONTINUOUS
0
LAYER
2
FADER
70
0
62
4
6
CONTINUOUS
0
LAYER
2
FADER_SCREW
70
0
62
30
6
CONTINUOUS
0
ENDTAB
0
ENDSEC
0
SECTION
2
ENTITIES
0
LINE
8
OUTLINE
10
0.0000
20
0.0000
30
0.0000
11
36.3000
21
0.0000
31
0.0000
0
LINE
8
OUTLINE
10
36.3000
20
0.0000
30
0.0000
11
36.3000
21
470.0000
31
0.0000
0
LINE
8
OUTLINE
10
36.3000
20
470.0000
30
0.0000
11
0.0000
21
470.0000
31
0.0000
0
LINE
8
OUTLINE
10
0.0000
20
470.0000
30
0.0000
11
0.0000
21
0.0000
31
0.0000
0
LINE
8
BUTTON
10
3.9175
20
459.7931
30
0.0000
11
9.5175
21
459.7931
31
0.0000
0
LINE
8
BUTTON
10
10.0175
20
460.2931
30
0.0000
11
10.0175
21
465.8931
31
0.0000
0
LINE
8
BUTTON
10
9.5175
20
466.3931
30
0.0000
11
3.9175
21
466.3931
31
0.0000
0
LINE
8
BUTTON
10
3.4175
20
465.8931
30
0.0000
11
3.4175
21
460.2931
31
0.0000
0
ARC
8
BUTTON
10
9.5175
20
460.2931
30
0.0000
40
0.5000
50
270.0000
51
0.0000
0
ARC
8
BUTTON
10
9.5175
20
465.8931
30
0.0000
40
0.5000
50
0.0000
51
90.0000
0
ARC
8
BUTTON
10
3.9175
20
465.8931
30
0.0000
40
0.5000
50
90.0000
51
180.0000
0
ARC
8
BUTTON
10
3.9175
20
460.2931
30
0.0000
40
0.5000
50
180.0000
51
270.0000
0
CIRCLE
8
LED
10
17.5750
20
463.0931
30
0.0000
40
1.6000
0
CIRCLE
8
LED
10
25.0050
20
463.0931
30
0.0000
40
1.6000
0
CIRCLE
8
LED
10
32.4050
20
463.0931
30
0.0000
40
1.6000
0
ARC
8
LED_RING
10
18.0767
20
441.8883
30
0.0000
40
8.1000
50
318.2500
51
228.2500
0
ARC
8
LED_RING
10
18.0767
20
441.8883
30
0.0000
40
7.1000
50
318.2500
51
228.2500
0
ARC
8
LED_RING
10
13.0160
20
436.2183
30
0.0000
40
0.5000
50
228.2500
51
48.2500
0
ARC
8
LED_RING
10
23.7468
20
436.8276
30
0.0000
40
0.5000
50
138.2500
51
318.2500
0
CIRCLE
8
ENCODER
10
18.1225
20
441.8597
30
0.0000
40
3.7500
0
CIRCLE
8
LED
10
30.0790
20
428.5406
30
0.0000
40
1.6000
0
CIRCLE
8
LED
10
18.0775
20
428.4406
30
0.0000
40
1.6000
0
CIRCLE
8
LED
10
6.0715
20
428.3406
30
0.0000
40
1.6000
0
LINE
8
BUTTON
10
27.5750
20
418.9406
30
0.0000
11
32.1750
21
418.9406
31
0.0000
0
LINE
8
BUTTON
10
32.6750
20
419.4406
30
0.0000
11
32.6750
21
424.0406
31
0.0000
0
LINE
8
BUTTON
10
32.1750
20
424.5406
30
0.0000
11
27.5750
21
424.5406
31
0.0000
0
LINE
8
BUTTON
10
27.0750
20
424.0406
30
0.0000
11
27.0750
21
419.4406
31
0.0000
0
ARC
8
BUTTON
10
32.1750
20
419.4406
30
0.0000
40
0.5000
50
270.0000
51
0.0000
0
ARC
8
BUTTON
10
32.1750
20
424.0406
30
0.0000
40
0.5000
50
0.0000
51
90.0000
0
ARC
8
BUTTON
10
27.5750
20
424.0406
30
0.0000
40
0.5000
50
90.0000
51
180.0000
0
ARC
8
BUTTON
10
27.5750
20
419.4406
30
0.0000
40
0.5000
50
180.0000
51
270.0000
0
LINE
8
BUTTON
10
15.7750
20
418.8406
30
0.0000
11
20.3750
21
418.8406
31
0.0000
0
LINE
8
BUTTON
10
20.8750
20
419.3406
30
0.0000
11
20.8750
21
423.9406
31
0.0000
0
LINE
8
BUTTON
10
20.3750
20
424.4406
30
0.0000
11
15.7750
21
424.4406
31
0.0000
0
LINE
8
BUTTON
10
15.2750
20
423.9406
30
0.0000
11
15.2750
21
419.3406
31
0.0000
0
ARC
8
BUTTON
10
20.3750
20
419.3406
30
0.0000
40
0.5000
50
270.0000
51
0.0000
0
ARC
8
BUTTON
10
20.3750
20
423.9406
30
0.0000
40
0.5000
50
0.0000
51
90.0000
0
ARC
8
BUTTON
10
15.7750
20
423.9406
30
0.0000
40
0.5000
50
90.0000
51
180.0000
0
ARC
8
BUTTON
10
15.7750
20
419.3406
30
0.0000
40
0.5000
50
180.0000
51
270.0000
0
LINE
8
BUTTON
10
3.9750
20
418.7756
30
0.0000
11
8.5750
21
418.7756
31
0.0000
0
LINE
8
BUTTON
10
9.0750
20
419.2756
30
0.0000
11
9.0750
21
423.8756
31
0.0000
0
LINE
8
BUTTON
10
8.5750
20
424.3756
30
0.0000
11
3.9750
21
424.3756
31
0.0000
0
LINE
8
BUTTON
10
3.4750
20
423.8756
30
0.0000
11
3.4750
21
419.2756
31
0.0000
0
ARC
8
BUTTON
10
8.5750
20
419.2756
30
0.0000
40
0.5000
50
270.0000
51
0.0000
0
ARC
8
BUTTON
10
8.5750
20
423.8756
30
0.0000
40
0.5000
50
0.0000
51
90.0000
0
ARC
8
BUTTON
10
3.9750
20
423.8756
30
0.0000
40
0.5000
50
90.0000
51
180.0000
0
ARC
8
BUTTON
10
3.9750
20
419.2756
30
0.0000
40
0.5000
50
180.0000
51
270.0000
0
LINE
8
BUTTON
10
3.4650
20
401.1506
30
0.0000
11
9.0650
21
401.1506
31
0.0000
0
LINE
8
BUTTON
10
9.5650
20
401.6506
30
0.0000
11
9.5650
21
407.2506
31
0.0000
0
LINE
8
BUTTON
10
9.0650
20
407.7506
30
0.0000
11
3.4650
21
407.7506
31
0.0000
0
LINE
8
BUTTON
10
2.9650
20
407.2506
30
0.0000
11
2.9650
21
401.6506
31
0.0000
0
ARC
8
BUTTON
10
9.0650
20
401.6506
30
0.0000
40
0.5000
50
270.0000
51
0.0000
0
ARC
8
BUTTON
10
9.0650
20
407.2506
30
0.0000
40
0.5000
50
0.0000
51
90.0000
0
ARC
8
BUTTON
10
3.4650
20
407.2506
30
0.0000
40
0.5000
50
90.0000
51
180.0000
0
ARC
8
BUTTON
10
3.4650
20
401.6506
30
0.0000
40
0.5000
50
180.0000
51
270.0000
0
LINE
8
BUTTON
10
15.2750
20
401.1406
30
0.0000
11
20.8750
21
401.1406
31
0.0000
0
LINE
8
BUTTON
10
21.3750
20
401.6406
30
0.0000
11
21.3750
21
407.2406
31
0.0000
0
LINE
8
BUTTON
10
20.8750
20
407.7406
30
0.0000
11
15.2750
21
407.7406
31
0.0000
0
LINE
8
BUTTON
10
14.7750
20
407.2406
30
0.0000
11
14.7750
21
401.6406
31
0.0000
0
ARC
8
BUTTON
10
20.8750
20
401.6406
30
0.0000
40
0.5000
50
270.0000
51
0.0000
0
ARC
8
BUTTON
10
20.8750
20
407.2406
30
0.0000
40
0.5000
50
0.0000
51
90.0000
0
ARC
8
BUTTON
10
15.2750
20
407.2406
30
0.0000
40
0.5000
50
90.0000
51
180.0000
0
ARC
8
BUTTON
10
15.2750
20
401.6406
30
0.0000
40
0.5000
50
180.0000
51
270.0000
0
LINE
8
BUTTON
10
27.0750
20
401.1406
30
0.0000
11
32.6750
21
401.1406
31
0.0000
0
LINE
8
BUTTON
10
33.1750
20
401.6406
30
0.0000
11
33.1750
21
407.2406
31
0.0000
0
LINE
8
BUTTON
10
32.6750
20
407.7406
30
0.0000
11
27.0750
21
407.7406
31
0.0000
0
LINE
8
BUTTON
10
26.5750
20
407.2406
30
0.0000
11
26.5750
21
401.6406
31
0.0000
0
ARC
8
BUTTON
10
32.6750
20
401.6406
30
0.0000
40
0.5000
50
270.0000
51
0.0000
0
ARC
8
BUTTON
10
32.6750
20
407.2406
30
0.0000
40
0.5000
50
0.0000
51
90.0000
0
ARC
8
BUTTON
10
27.0750
20
407.2406
30
0.0000
40
0.5000
50
90.0000
51
180.0000
0
ARC
8
BUTTON
10
27.0750
20
401.6406
30
0.0000
40
0.5000
50
180.0000
51
270.0000
0
ARC
8
LED_RING
10
10.8267
20
381.4404
30
0.0000
40
8.1000
50
318.2500
51
228.2500
0
ARC
8
LED_RING
10
10.8267
20
381.4404
30
0.0000
40
7.1000
50
318.2500
51
228.2500
0
ARC
8
LED_RING
10
5.7660
20
375.7704
30
0.0000
40
0.5000
50
228.2500
51
48.2500
0
ARC
8
LED_RING
10
16.4968
20
376.3797
30
0.0000
40
0.5000
50
138.2500
51
318.2500
0
CIRCLE
8
ENCODER
10
10.8725
20
381.4119
30
0.0000
40
3.7500
0
ARC
8
LED_RING
10
25.4203
20
360.2593
30
0.0000
40
8.1000
50
318.2500
51
228.2500
0
ARC
8
LED_RING
10
25.4203
20
360.2593
30
0.0000
40
7.1000
50
318.2500
51
228.2500
0
ARC
8
LED_RING
10
20.3596
20
354.5893
30
0.0000
40
0.5000
50
228.2500
51
48.2500
0
ARC
8
LED_RING
10
31.0904
20
355.1986
30
0.0000
40
0.5000
50
138.2500
51
318.2500
0
CIRCLE
8
ENCODER
10
25.4661
20
360.2307
30
0.0000
40
3.7500
0
ARC
8
LED_RING
10
10.8031
20
339.0878
30
0.0000
40
8.1000
50
318.2500
51
228.2500
0
ARC
8
LED_RING
10
10.8031
20
339.0878
30
0.0000
40
7.1000
50
318.2500
51
228.2500
0
ARC
8
LED_RING
10
5.7424
20
333.4178
30
0.0000
40
0.5000
50
228.2500
51
48.2500
0
ARC
8
LED_RING
10
16.4731
20
334.0271
30
0.0000
40
0.5000
50
138.2500
51
318.2500
0
CIRCLE
8
ENCODER
10
10.8489
20
339.0592
30
0.0000
40
3.7500
0
ARC
8
LED_RING
10
25.3967
20
317.8883
30
0.0000
40
8.1000
50
318.2500
51
228.2500
0
ARC
8
LED_RING
10
25.3967
20
317.8883
30
0.0000
40
7.1000
50
318.2500
51
228.2500
0
ARC
8
LED_RING
10
20.3360
20
312.2183
30
0.0000
40
0.5000
50
228.2500
51
48.2500
0
ARC
8
LED_RING
10
31.0668
20
312.8276
30
0.0000
40
0.5000
50
138.2500
51
318.2500
0
CIRCLE
8
ENCODER
10
25.4425
20
317.8597
30
0.0000
40
3.7500
0
ARC
8
LED_RING
10
10.8210
20
296.7003
30
0.0000
40
8.1000
50
318.2500
51
228.2500
0
ARC
8
LED_RING
10
10.8210
20
296.7003
30
0.0000
40
7.1000
50
318.2500
51
228.2500
0
ARC
8
LED_RING
10
5.7603
20
291.0302
30
0.0000
40
0.5000
50
228.2500
51
48.2500
0
ARC
8
LED_RING
10
16.4911
20
291.6396
30
0.0000
40
0.5000
50
138.2500
51
318.2500
0
CIRCLE
8
ENCODER
10
10.8668
20
296.6716
30
0.0000
40
3.7500
0
ARC
8
LED_RING
10
25.4146
20
275.4878
30
0.0000
40
8.1000
50
318.2500
51
228.2500
0
ARC
8
LED_RING
10
25.4146
20
275.4878
30
0.0000
40
7.1000
50
318.2500
51
228.2500
0
ARC
8
LED_RING
10
20.3539
20
269.8178
30
0.0000
40
0.5000
50
228.2500
51
48.2500
0
ARC
8
LED_RING
10
31.0847
20
270.4271
30
0.0000
40
0.5000
50
138.2500
51
318.2500
0
CIRCLE
8
ENCODER
10
25.4604
20
275.4592
30
0.0000
40
3.7500
0
ARC
8
LED_RING
10
10.7831
20
254.2878
30
0.0000
40
8.1000
50
318.2500
51
228.2500
0
ARC
8
LED_RING
10
10.7831
20
254.2878
30
0.0000
40
7.1000
50
318.2500
51
228.2500
0
ARC
8
LED_RING
10
5.7224
20
248.6178
30
0.0000
40
0.5000
50
228.2500
51
48.2500
0
ARC
8
LED_RING
10
16.4531
20
249.2271
30
0.0000
40
0.5000
50
138.2500
51
318.2500
0
CIRCLE
8
ENCODER
10
10.8289
20
254.2592
30
0.0000
40
3.7500
0
ARC
8
LED_RING
10
25.3767
20
233.0878
30
0.0000
40
8.1000
50
318.2500
51
228.2500
0
ARC
8
LED_RING
10
25.3767
20
233.0878
30
0.0000
40
7.1000
50
318.2500
51
228.2500
0
ARC
8
LED_RING
10
20.3160
20
227.4178
30
0.0000
40
0.5000
50
228.2500
51
48.2500
0
ARC
8
LED_RING
10
31.0468
20
228.0271
30
0.0000
40
0.5000
50
138.2500
51
318.2500
0
CIRCLE
8
ENCODER
10
25.4225
20
233.0592
30
0.0000
40
3.7500
0
LINE
8
DISPLAY
10
4.4226
20
192.3409
30
0.0000
11
31.8226
21
192.3409
31
0.0000
0
LINE
8
DISPLAY
10
32.3226
20
192.8409
30
0.0000
11
32.3226
21
220.2409
31
0.0000
0
LINE
8
DISPLAY
10
31.8226
20
220.7409
30
0.0000
11
4.4226
21
220.7409
31
0.0000
0
LINE
8
DISPLAY
10
3.9226
20
220.2409
30
0.0000
11
3.9226
21
192.8409
31
0.0000
0
ARC
8
DISPLAY
10
31.8226
20
192.8409
30
0.0000
40
0.5000
50
270.0000
51
0.0000
0
ARC
8
DISPLAY
10
31.8226
20
220.2409
30
0.0000
40
0.5000
50
0.0000
51
90.0000
0
ARC
8
DISPLAY
10
4.4226
20
220.2409
30
0.0000
40
0.5000
50
90.0000
51
180.0000
0
ARC
8
DISPLAY
10
4.4226
20
192.8409
30
0.0000
40
0.5000
50
180.0000
51
270.0000
0
LINE
8
BUTTON
10
3.4750
20
183.2931
30
0.0000
11
9.0750
21
183.2931
31
0.0000
0
LINE
8
BUTTON
10
9.5750
20
183.7931
30
0.0000
11
9.5750
21
189.3931
31
0.0000
0
LINE
8
BUTTON
10
9.0750
20
189.8931
30
0.0000
11
3.4750
21
189.8931
31
0.0000
0
LINE
8
BUTTON
10
2.9750
20
189.3931
30
0.0000
11
2.9750
21
183.7931
31
0.0000
0
ARC
8
BUTTON
10
9.0750
20
183.7931
30
0.0000
40
0.5000
50
270.0000
51
0.0000
0
ARC
8
BUTTON
10
9.0750
20
189.3931
30
0.0000
40
0.5000
50
0.0000
51
90.0000
0
ARC
8
BUTTON
10
3.4750
20
189.3931
30
0.0000
40
0.5000
50
90.0000
51
180.0000
0
ARC
8
BUTTON
10
3.4750
20
183.7931
30
0.0000
40
0.5000
50
180.0000
51
270.0000
0
LINE
8
BUTTON
10
15.2750
20
183.2931
30
0.0000
11
20.8750
21
183.2931
31
0.0000
0
LINE
8
BUTTON
10
21.3750
20
183.7931
30
0.0000
11
21.3750
21
189.3931
31
0.0000
0
LINE
8
BUTTON
10
20.8750
20
189.8931
30
0.0000
11
15.2750
21
189.8931
31
0.0000
0
LINE
8
BUTTON
10
14.7750
20
189.3931
30
0.0000
11
14.7750
21
183.7931
31
0.0000
0
ARC
8
BUTTON
10
20.8750
20
183.7931
30
0.0000
40
0.5000
50
270.0000
51
0.0000
0
ARC
8
BUTTON
10
20.8750
20
189.3931
30
0.0000
40
0.5000
50
0.0000
51
90.0000
0
ARC
8
BUTTON
10
15.2750
20
189.3931
30
0.0000
40
0.5000
50
90.0000
51
180.0000
0
ARC
8
BUTTON
10
15.2750
20
183.7931
30
0.0000
40
0.5000
50
180.0000
51
270.0000
0
LINE
8
BUTTON
10
27.0750
20
183.2931
30
0.0000
11
32.6750
21
183.2931
31
0.0000
0
LINE
8
BUTTON
10
33.1750
20
183.7931
30
0.0000
11
33.1750
21
189.3931
31
0.0000
0
LINE
8
BUTTON
10
32.6750
20
189.8931
30
0.0000
11
27.0750
21
189.8931
31
0.0000
0
LINE
8
BUTTON
10
26.5750
20
189.3931
30
0.0000
11
26.5750
21
183.7931
31
0.0000
0
ARC
8
BUTTON
10
32.6750
20
183.7931
30
0.0000
40
0.5000
50
270.0000
51
0.0000
0
ARC
8
BUTTON
10
32.6750
20
189.3931
30
0.0000
40
0.5000
50
0.0000
51
90.0000
0
ARC
8
BUTTON
10
27.0750
20
189.3931
30
0.0000
40
0.5000
50
90.0000
51
180.0000
0
ARC
8
BUTTON
10
27.0750
20
183.7931
30
0.0000
40
0.5000
50
180.0000
51
270.0000
0
ARC
8
LED_RING
10
18.1570
20
163.5318
30
0.0000
40
8.1000
50
318.2500
51
228.2500
0
ARC
8
LED_RING
10
18.1570
20
163.5318
30
0.0000
40
7.1000
50
318.2500
51
228.2500
0
ARC
8
LED_RING
10
13.0963
20
157.8617
30
0.0000
40
0.5000
50
228.2500
51
48.2500
0
ARC
8
LED_RING
10
23.8270
20
158.4711
30
0.0000
40
0.5000
50
138.2500
51
318.2500
0
CIRCLE
8
ENCODER
10
18.2027
20
163.5032
30
0.0000
40
3.7500
0
LINE
8
FADER
10
16.6500
20
25.0032
30
0.0000
11
16.6500
21
127.0032
31
0.0000
0
LINE
8
FADER
10
19.6500
20
25.0032
30
0.0000
11
19.6500
21
127.0032
31
0.0000
0
ARC
8
FADER
10
18.1500
20
127.0032
30
0.0000
40
1.5000
50
0.0000
51
180.0000
0
ARC
8
FADER
10
18.1500
20
25.0032
30
0.0000
40
1.5000
50
180.0000
51
0.0000
0
CIRCLE
8
FADER_SCREW
10
18.1500
20
136.0032
30
0.0000
40
1.6000
0
CIRCLE
8
FADER_SCREW
10
18.1500
20
16.0032
30
0.0000
40
1.6000
0
LINE
8
BUTTON
10
2.7000
20
112.2032
30
0.0000
11
7.3000
21
112.2032
31
0.0000
0
LINE
8
BUTTON
10
7.8000
20
112.7032
30
0.0000
11
7.8000
21
117.3032
31
0.0000
0
LINE
8
BUTTON
10
7.3000
20
117.8032
30
0.0000
11
2.7000
21
117.8032
31
0.0000
0
LINE
8
BUTTON
10
2.2000
20
117.3032
30
0.0000
11
2.2000
21
112.7032
31
0.0000
0
ARC
8
BUTTON
10
7.3000
20
112.7032
30
0.0000
40
0.5000
50
270.0000
51
0.0000
0
ARC
8
BUTTON
10
7.3000
20
117.3032
30
0.0000
40
0.5000
50
0.0000
51
90.0000
0
ARC
8
BUTTON
10
2.7000
20
117.3032
30
0.0000
40
0.5000
50
90.0000
51
180.0000
0
ARC
8
BUTTON
10
2.7000
20
112.7032
30
0.0000
40
0.5000
50
180.0000
51
270.0000
0
CIRCLE
8
LED
10
5.0000
20
121.8032
30
0.0000
40
1.6000
0
LINE
8
BUTTON
10
2.7000
20
92.2032
30
0.0000
11
7.3000
21
92.2032
31
0.0000
0
LINE
8
BUTTON
10
7.8000
20
92.7032
30
0.0000
11
7.8000
21
97.3032
31
0.0000
0
LINE
8
BUTTON
10
7.3000
20
97.8032
30
0.0000
11
2.7000
21
97.8032
31
0.0000
0
LINE
8
BUTTON
10
2.2000
20
97.3032
30
0.0000
11
2.2000
21
92.7032
31
0.0000
0
ARC
8
BUTTON
10
7.3000
20
92.7032
30
0.0000
40
0.5000
50
270.0000
51
0.0000
0
ARC
8
BUTTON
10
7.3000
20
97.3032
30
0.0000
40
0.5000
50
0.0000
51
90.0000
0
ARC
8
BUTTON
10
2.7000
20
97.3032
30
0.0000
40
0.5000
50
90.0000
51
180.0000
0
ARC
8
BUTTON
10
2.7000
20
92.7032
30
0.0000
40
0.5000
50
180.0000
51
270.0000
0
CIRCLE
8
LED
10
5.0000
20
101.8032
30
0.0000
40
1.6000
0
ENDSEC
0
EOF
